<?xml version="1.0" encoding="utf-8"?>
<!-- Generated by IcoMoon.io -->
<!DOCTYPE svg PUBLIC "-//W3C//DTD SVG 1.1//EN" "http://www.w3.org/Graphics/SVG/1.1/DTD/svg11.dtd">
<svg version="1.1" xmlns="http://www.w3.org/2000/svg" xmlns:xlink="http://www.w3.org/1999/xlink" width="128" height="128" viewBox="0 0 128 128">
	<path d="M100 16h-72c-6.628 0-12 5.372-12 12v4h96v-4c0-6.628-5.373-12-12-12zM79.040 8l1.764 12.625h-33.609l1.764-12.625h30.080M80 0h-32c-3.3 0-6.374 2.674-6.83 5.942l-2.339 16.74c-0.457 3.268 1.87 5.942 5.169 5.942h40c3.3 0 5.626-2.674 5.17-5.942l-2.339-16.741c-0.457-3.268-3.531-5.942-6.831-5.942v0zM102 40h-76c-4.4 0-7.674 3.585-7.276 7.967l6.552 72.066c0.398 4.382 4.324 7.967 8.724 7.967h60c4.4 0 8.326-3.585 8.724-7.967l6.551-72.066c0.398-4.382-2.876-7.967-7.275-7.967zM48 112h-12l-4-56h16v56zM72 112h-16v-56h16v56zM92 112h-12v-56h16l-4 56z" fill="#000000" />
</svg>
