<?xml version="1.0" encoding="utf-8"?>
<!-- Generated by IcoMoon.io -->
<!DOCTYPE svg PUBLIC "-//W3C//DTD SVG 1.1//EN" "http://www.w3.org/Graphics/SVG/1.1/DTD/svg11.dtd">
<svg version="1.1" xmlns="http://www.w3.org/2000/svg" xmlns:xlink="http://www.w3.org/1999/xlink" width="1024" height="1024" viewBox="0 0 1024 1024">
	<path d="M990.208 693.453l-163.021-109.67h-100.506l174.080 133.53h-181.504c-5.222 0-9.882 2.662-12.288 6.81l-41.779 114.432-306.381-0-41.83-114.432c-2.304-4.147-7.066-6.81-12.288-6.81h-181.453l174.131-133.53h-100.557l-162.97 109.67c-24.269 14.49-38.758 47.923-32.256 74.189l28.723 157.389c6.502 26.317 35.379 47.872 64.051 47.872h835.226c28.774 0 57.6-21.555 64.102-47.872l28.723-157.389c6.605-26.317-7.936-59.699-32.205-74.189zM778.291 364.646h-169.011v-262.144h-194.56v262.144h-168.96l266.24 249.856 266.291-249.856z" fill="#000000" />
</svg>
