<?xml version="1.0" encoding="utf-8"?>
<!-- Generated by IcoMoon.io -->
<!DOCTYPE svg PUBLIC "-//W3C//DTD SVG 1.1//EN" "http://www.w3.org/Graphics/SVG/1.1/DTD/svg11.dtd">
<svg version="1.1" xmlns="http://www.w3.org/2000/svg" xmlns:xlink="http://www.w3.org/1999/xlink" width="1024" height="1024" viewBox="0 0 1024 1024">
	<path d="M960 1024h-896c-35.344 0-64-28.624-64-64v-896c0-35.376 28.656-64 64-64h640l-128 128h-448v768h768v-448l128-128v640c0 35.376-28.656 64-64 64zM256 768v-192l576-576h64l128 128v64l-576 576h-192zM544 544l352-352-64-64-352 352 64 64zM384 576l-64 64v64h64l64-64-64-64z" />
</svg>
