<?xml version="1.0" encoding="utf-8"?>
<!-- Generated by IcoMoon.io -->
<!DOCTYPE svg PUBLIC "-//W3C//DTD SVG 1.1//EN" "http://www.w3.org/Graphics/SVG/1.1/DTD/svg11.dtd">
<svg version="1.1" xmlns="http://www.w3.org/2000/svg" xmlns:xlink="http://www.w3.org/1999/xlink" width="640" height="640" viewBox="0 0 640 640">
<g>
</g>
	<path d="M316.064 25.632c-162.56 2.176-292.608 135.744-290.432 298.336 2.176 162.496 135.744 292.576 298.304 290.4 162.56-2.176 292.608-135.744 290.432-298.336-2.144-162.528-135.744-292.576-298.304-290.4zM348.704 123.744c29.92 0 38.752 17.344 38.752 37.216 0 24.8-19.872 47.744-53.76 47.744-28.352 0-41.824-14.272-41.024-37.824 0-19.872 16.64-47.136 56.032-47.136zM271.968 504c-20.448 0-35.424-12.416-21.12-67.008l23.456-96.768c4.064-15.52 4.736-21.728 0-21.728-6.112 0-32.672 10.72-48.384 21.28l-10.208-16.736c49.76-41.536 106.976-65.92 131.488-65.92 20.448 0 23.84 24.192 13.632 61.408l-26.88 101.76c-4.736 17.984-2.688 24.192 2.048 24.192 6.112 0 26.24-7.424 46.016-22.976l11.552 15.52c-48.352 48.352-101.12 66.976-121.6 66.976z" />
</svg>
