<?xml version="1.0" encoding="utf-8"?>
<!-- Generated by IcoMoon.io -->
<!DOCTYPE svg PUBLIC "-//W3C//DTD SVG 1.1//EN" "http://www.w3.org/Graphics/SVG/1.1/DTD/svg11.dtd">
<svg version="1.1" xmlns="http://www.w3.org/2000/svg" xmlns:xlink="http://www.w3.org/1999/xlink" width="1024" height="1024" viewBox="0 0 1024 1024">
	<path d="M384 586.666c0 0 203.944-122.36 318.766-74.026 23.802-36.268 47.248-75.336 70.202-115.222-112.326-27.52-260.968-2.752-260.968-2.752s190.212-114.122 306.666-78.4c23.35-42.108 46.054-83.642 67.956-122.304-92.776-6.268-182.622 8.704-182.622 8.704s119.148-71.488 226.578-83.598c33.798-54.86 65.17-97.88 93.422-119.068-561 0-896 640-1024 1024h64l192-320c0 0 64 64 256 0 45.474-15.158 90.948-57.252 135.572-113.934-112.616-28.554-263.572-3.4-263.572-3.4z" />
</svg>
