<?xml version="1.0" encoding="utf-8"?>
<!-- Generated by IcoMoon.io -->
<!DOCTYPE svg PUBLIC "-//W3C//DTD SVG 1.1//EN" "http://www.w3.org/Graphics/SVG/1.1/DTD/svg11.dtd">
<svg version="1.1" xmlns="http://www.w3.org/2000/svg" xmlns:xlink="http://www.w3.org/1999/xlink" width="1024" height="1024" viewBox="0 0 1024 1024">
<g>
</g>
	<path d="M544 832c0 0 198.016-65.984 352 57.984 0-1.984 0-57.984 0-57.984-180-100-352 0-352 0zM64 192v636c0 0 86.016-62.016 208-62.016s208 62.016 208 62.016v-628c0 0-86.016-72-208-72s-208 64-208 64zM128 256h128v160h-128v-160zM416 672h-288v-32h288v32zM416 608h-288v-32h288v32zM416 544h-288v-32h288v32zM416 480h-288v-32h288v32zM288 256h128v32h-128v-32zM288 320h128v32h-128v-32zM288 384h128v32h-128v-32zM720 128c-121.984 0-208 64-208 64v636c0 0 86.016-62.016 208-62.016s208 62.016 208 62.016v-628c0 0-86.016-72-208-72zM864 672h-288v-32h288v32zM864 608h-288v-32h288v32zM864 544h-288v-32h288v32zM864 480h-288v-32h288v32zM864 416h-288v-32h288v32zM864 352h-288v-32h288v32zM864 288h-288v-32h288v32zM96 832c0 0 0 56 0 57.984 153.984-123.968 352-57.984 352-57.984s-172-100-352 0z" />
</svg>
