<?xml version="1.0" encoding="utf-8"?>
<!-- Generated by IcoMoon.io -->
<!DOCTYPE svg PUBLIC "-//W3C//DTD SVG 1.1//EN" "http://www.w3.org/Graphics/SVG/1.1/DTD/svg11.dtd">
<svg version="1.1" xmlns="http://www.w3.org/2000/svg" xmlns:xlink="http://www.w3.org/1999/xlink" width="384" height="448" viewBox="0 0 384 448">
<g>
</g>
	<path fill="#468847" xmlns="http://www.w3.org/2000/svg" d="M321 183.5q0-7-4.5-11.5l-22.75-22.5q-4.75-4.75-11.25-4.75t-11.25 4.75l-102 101.75-56.5-56.5q-4.75-4.75-11.25-4.75t-11.25 4.75l-22.75 22.5q-4.5 4.5-4.5 11.5 0 6.75 4.5 11.25l90.5 90.5q4.75 4.75 11.25 4.75 6.75 0 11.5-4.75l135.75-135.75q4.5-4.5 4.5-11.25zM384 224q0 52.25-25.75 96.375t-69.875 69.875-96.375 25.75-96.375-25.75-69.875-69.875-25.75-96.375 25.75-96.375 69.875-69.875 96.375-25.75 96.375 25.75 69.875 69.875 25.75 96.375z" /></svg>
