<?xml version="1.0" encoding="utf-8"?>
<!-- Generated by IcoMoon.io -->
<!DOCTYPE svg PUBLIC "-//W3C//DTD SVG 1.1//EN" "http://www.w3.org/Graphics/SVG/1.1/DTD/svg11.dtd">
<svg version="1.1" xmlns="http://www.w3.org/2000/svg" xmlns:xlink="http://www.w3.org/1999/xlink" width="448" height="448" viewBox="0 0 448 448">
<g>
</g>
	<path fill="#c09853" d="M256 343.75v-47.5q0-3.5-2.375-5.875t-5.625-2.375h-48q-3.25 0-5.625 2.375t-2.375 5.875v47.5q0 3.5 2.375 5.875t5.625 2.375h48q3.25 0 5.625-2.375t2.375-5.875zM255.5 250.25l4.5-114.75q0-3-2.5-4.75-3.25-2.75-6-2.75h-55q-2.75 0-6 2.75-2.5 1.75-2.5 5.25l4.25 114.25q0 2.5 2.5 4.125t6 1.625h46.25q3.5 0 5.875-1.625t2.625-4.125zM252 16.75l192 352q8.75 15.75-0.5 31.5-4.25 7.25-11.625 11.5t-15.875 4.25h-384q-8.5 0-15.875-4.25t-11.625-11.5q-9.25-15.75-0.5-31.5l192-352q4.25-7.75 11.75-12.25t16.25-4.5 16.25 4.5 11.75 12.25z" />
</svg>
