<?xml version="1.0" encoding="UTF-8" standalone="no"?>
<!DOCTYPE svg PUBLIC "-//W3C//DTD SVG 1.1//EN" "http://www.w3.org/Graphics/SVG/1.1/DTD/svg11.dtd">
<svg width="100%" height="100%" viewBox="0 0 3508 3508" version="1.1" xmlns="http://www.w3.org/2000/svg" xmlns:xlink="http://www.w3.org/1999/xlink" xml:space="preserve" xmlns:serif="http://www.serif.com/" style="fill-rule:evenodd;clip-rule:evenodd;stroke-linejoin:round;stroke-miterlimit:2;">
    <g transform="matrix(4.119,0,0,3.62407,-7780.84,-263.324)">
        <g transform="matrix(0.766904,0,0,0.766904,1090.76,-598.454)">
            <path d="M1677.01,1507.27L1672.97,2033.51L1628.07,2079.51L1624.91,2096.64L1597.62,2096.64L1524.74,2022.07L1524.74,1983.36L1553.72,1953.89L1553.72,1922.76L1528.74,1896.99L1528.74,1855.5L1565.1,1833.43L1565.1,1790.41L1551.36,1782.9L1551.36,1732.14L1571.37,1712.36L1571.37,1684.1L1516.12,1639.41L1516.12,1507.03L1677.01,1507.27Z" style="fill:white;"/>
        </g>
        <g transform="matrix(1,0,0,0.775576,44.3596,-56.9551)">
            <path d="M1975.96,208.405L2114.52,208.405L2268.75,664.2L2271.25,664.2L2424.86,208.405L2564.04,208.405L2332.39,833.477L2332.39,866.623L2209,866.411L2209.19,833.477L1975.96,208.405Z" style="fill:white;fill-rule:nonzero;"/>
        </g>
    </g>
</svg>
