<svg xml:space="preserve" style="max-height: 500px" viewBox="0 0 738.9105 856.92578125" y="0px" x="0px" xmlns:xlink="http://www.w3.org/1999/xlink" xmlns="http://www.w3.org/2000/svg" id="Calque_1" version="1.1" width="738.9105" height="856.92578125">
<style type="text/css">
	.st0{fill:url(#SVGID_1_);}
	.st1{fill:#3C3C3B;}
</style>
<linearGradient y2="202.2406" x2="707.926" y1="636.4475" x1="8.4401" gradientUnits="userSpaceOnUse" id="SVGID_1_">
	<stop style="stop-color:#EC6608" offset="0"/>
	<stop style="stop-color:#ED6C07" offset="0.168"/>
	<stop style="stop-color:#EF7A07" offset="0.3875"/>
	<stop style="stop-color:#F39107" offset="0.6356"/>
	<stop style="stop-color:#F9AF06" offset="0.9028"/>
	<stop style="stop-color:#FBBA07" offset="1"/>
</linearGradient>
<path d="M505,378c-3.4,2-8.8,1.8-12.1-0.2l-19.7-11.7c-1.6-1-3.1-2.6-4.2-4.5c-0.1-0.1-0.1-0.2-0.2-0.3  c-1.3-2-2-4.2-2-6.2l-0.5-22.9c-0.1-3.9,2.4-8.6,5.8-10.6l236.4-137.7L376.8,3c-3.7-2-8.5-3-13.3-3c-4.8,0-9.7,1-13.3,3L18.4,183.8  l371.7,216.4c3.4,1.9,6.1,6.4,6.1,10.4l0,315.7c0,4-2.8,8.5-6.3,10.4l-20,11.1c-1.7,0.9-3.8,1.4-6,1.4c-0.1,0-0.3,0-0.4,0  c-2.4,0.1-4.6-0.4-6.4-1.4L337,736.6c-3.4-1.8-6.2-6.4-6.2-10.4l0-281.4c-0.2-2.1-1.7-4.6-3.3-5.5L0,248.7l0,373.4  c0,8.4,5.9,18.7,13.1,22.9l337.3,198.9c3.6,2.1,8.4,3.2,13.1,3.1c4.7,0,9.5-1,13.1-3.1L713.9,645c7.2-4.3,13.1-14.5,13.1-22.9V248.7  L505,378z" class="st0"/>
<g>
	<path d="M1201.3,340.4c-25.9-15.7-51.9-22.5-86.7-22.5c-92.9,0-160.5,63.5-160.5,159.8c0,95.6,62.9,158.5,161.2,158.5   c31.4,0,61.5-6.2,88.8-22.5v-77.2c-23.2,17.8-48.5,27.3-77.2,27.3c-55.3,0-90.2-35.5-90.2-87.4c0-54.6,36.2-86,86.8-86   c28,0,52.6,7.5,77.8,28V340.4z" class="st1"/>
	<path d="M1703.2,559.5l-0.3,0c-29.9-2.5-45.4-19.9-45.4-51V186.3h-81.8v327.5c0,89.3,50,118.5,127.5,118.9V559.5z" class="st1"/>
	<path d="M1384.6,317.9c-90.9,0-159.2,64.2-159.2,159.1c0,94.9,68.3,159.2,159.2,159.2c90.8,0,159.8-64.2,159.8-159.2   C1544.4,382.1,1475.4,317.9,1384.6,317.9z M1384.6,565.2c-44.4,0-76.5-33.5-76.5-88.1c0-54.6,32.1-88.1,76.5-88.1   c44.4,0,76.5,33.5,76.5,88.1C1461.1,531.7,1429,565.2,1384.6,565.2z" class="st1"/>
	<path d="M1874,608.2c24.6,15.7,62.1,24.6,99,24.6c71,0,120.9-30.1,120.9-96.3c0-54.6-26.6-84.7-105.2-99.1   c-28.7-6.8-39.6-15-39.6-30.7c0-14.3,11.6-25.9,38.9-25.9c31.4,0,58,10.2,86.7,29.4V337c-26.6-15-53.3-22.5-89.5-22.5   c-65.5,0-116.1,30.7-116.1,97.7c0,55.3,28.7,82.6,97.6,95c33.5,6.8,46.5,14.3,46.5,32.8c0,19.1-17.1,26.6-42.3,26.6   c-30.1,0-68.3-13-97-34.1V608.2z" class="st1"/>
	<polygon points="1741.1,629.4 1823.3,629.4 1823.3,603.2 1823.3,324 1741.1,324" class="st1"/>
	<path d="M1782.2,202.2c-22.7,0-41.1,18.4-41.1,41.1c0,22.7,18.4,41.1,41.1,41.1c22.7,0,41.1-18.4,41.1-41.1   C1823.3,220.5,1804.9,202.2,1782.2,202.2" class="st1"/>
	<path d="M3153.7,317.9c-90.8,0-159.2,64.2-159.2,159.1c0,94.9,68.3,159.2,159.2,159.2c90.8,0,159.8-64.2,159.8-159.2   C3313.5,382.1,3244.5,317.9,3153.7,317.9z M3153.7,565.2c-44.4,0-76.5-33.5-76.5-88.1c0-54.6,32.1-88.1,76.5-88.1   c44.4,0,76.5,33.5,76.5,88.1C3230.2,531.7,3198.1,565.2,3153.7,565.2z" class="st1"/>
	<path d="M2121.4,608.2c24.6,15.7,62.1,24.6,99,24.6c71.1,0,120.9-30.1,120.9-96.3c0-54.6-26.6-84.7-105.2-99.1   c-28.7-6.8-39.6-15-39.6-30.7c0-14.3,11.6-25.9,39-25.9c31.4,0,58,10.2,86.7,29.4V337c-26.6-15-53.3-22.5-89.5-22.5   c-65.5,0-116.1,30.7-116.1,97.7c0,55.3,28.7,82.6,97.6,95c33.5,6.8,46.5,14.3,46.5,32.8c0,19.1-17.1,26.6-42.3,26.6   c-30.1,0-68.3-13-97-34.1V608.2z" class="st1"/>
	<polygon points="2376.5,629.4 2458.7,629.4 2458.7,603.2 2458.7,324 2376.5,324" class="st1"/>
	<path d="M2417.6,202.2c-22.7,0-41.1,18.4-41.1,41.1c0,22.7,18.4,41.1,41.1,41.1c22.7,0,41.1-18.4,41.1-41.1   C2458.7,220.5,2440.3,202.2,2417.6,202.2" class="st1"/>
	<path d="M2878.3,438.9c0-32.1-14.3-48.5-46.4-48.5c-21.8,0-43.7,4.8-57.3,11.6c2.7,6.8,6.1,17.1,6.1,31.4v195.9h-82.6   V438.9c0-32.1-15-48.5-46.4-48.5c-19.8,0-34.8,2.7-51.2,7.5v231.4h-81.9V344.8c42.3-16.4,92.1-26.6,137.2-26.6   c35.5,0,65.5,8.9,84,23.9c27.3-12.3,58.7-23.9,103.1-23.9c72.4,0,118.1,28,118.1,117.4v193.8h-82.6V438.9z" class="st1"/>
</g>
</svg>