<svg xmlns="http://www.w3.org/2000/svg" fill="none" viewBox="0 0 584.82 593.7109826589594" style="max-height: 500px" width="584.82" height="593.7109826589594">
<g clip-path="url(#clip0_1674_25363)">
<path fill="#96154A" d="M0 492.169C0.6637 510.782 7.40402 528.68 19.2089 543.175C31.0138 557.67 47.2462 567.98 65.4689 572.556C89.9119 578.535 215.931 592.151 290.477 592.151C365.023 592.151 491.093 578.535 515.536 572.556C533.758 567.98 549.991 557.67 561.796 543.175C573.6 528.68 580.341 510.782 581.004 492.169V99.6797C580.333 81.0688 573.589 63.1749 561.786 48.6816C549.982 34.1884 533.754 23.8768 515.536 19.2927C491.093 13.3139 365.074 -0.251465 290.477 -0.251465C215.88 -0.251465 89.9119 13.3139 65.4689 19.2927C47.2502 23.8768 31.0224 34.1884 19.2188 48.6816C7.41517 63.1749 0.671848 81.0688 0 99.6797V492.169Z"/>
<path fill="white" d="M335.205 285.826C285.304 277.034 252.037 303.511 252.037 346.468V444.741L173.586 494.531V346.468C173.586 260.554 233.629 200.767 335.205 212.875V285.826Z"/>
<path fill="white" d="M308.733 137.361C308.733 146.185 306.092 154.811 301.144 162.148C296.196 169.485 289.163 175.204 280.934 178.58C272.705 181.957 263.651 182.84 254.916 181.119C246.18 179.397 238.156 175.148 231.859 168.909C225.561 162.669 221.272 154.72 219.534 146.065C217.797 137.411 218.688 128.441 222.097 120.288C225.505 112.136 231.277 105.168 238.683 100.266C246.088 95.3634 254.794 92.7466 263.701 92.7466C275.644 92.7466 287.098 97.4474 295.543 105.814C303.989 114.181 308.733 125.529 308.733 137.361Z"/>
<path fill="#F6ABB6" d="M353.968 279.898C354.085 282.615 355.08 285.224 356.805 287.34C358.53 289.456 360.895 290.968 363.552 291.654C374.425 293.367 385.406 294.325 396.413 294.518C407.438 294.327 418.436 293.369 429.325 291.654C431.982 290.968 434.347 289.456 436.073 287.34C437.798 285.224 438.792 282.615 438.91 279.898V222.521C438.798 219.807 437.804 217.203 436.077 215.093C434.35 212.984 431.982 211.484 429.325 210.815C418.436 209.1 407.438 208.143 396.413 207.951C385.406 208.145 374.425 209.102 363.552 210.815C360.895 211.484 358.527 212.984 356.8 215.093C355.073 217.203 354.08 219.807 353.968 222.521V279.898Z"/>
<path fill="#96154A" d="M1189.39 157.76C1200.01 167.808 1205.32 182.881 1205.32 202.977V281.958H1172.91V207.097C1173.59 197.245 1170.45 187.508 1164.14 179.866C1160.94 176.712 1157.1 174.266 1152.88 172.69C1148.66 171.114 1144.15 170.443 1139.65 170.722C1134.43 170.447 1129.21 171.256 1124.33 173.099C1119.45 174.942 1115.01 177.778 1111.3 181.424C1103.84 189.938 1100.09 201.026 1100.85 212.272V281.958H1068.45V144.144H1099.28V161.93C1104.73 155.536 1111.7 150.582 1119.56 147.51C1128.35 144.086 1137.71 142.38 1147.15 142.486C1154.84 142.099 1162.53 143.232 1169.78 145.819C1177.02 148.407 1183.67 152.398 1189.34 157.559"/>
<path fill="#96154A" d="M980.664 285.022C966.235 285.241 952.067 281.203 939.963 273.421C927.858 265.639 918.364 254.465 912.688 241.321C907.013 228.177 905.412 213.657 908.091 199.609C910.77 185.561 917.606 172.621 927.731 162.434C937.855 152.247 950.809 145.275 964.945 142.404C979.081 139.534 993.76 140.894 1007.11 146.313C1020.47 151.732 1031.89 160.965 1039.93 172.836C1047.97 184.707 1052.27 198.679 1052.27 212.975C1052.4 231.933 1044.94 250.169 1031.51 263.677C1018.09 277.186 999.798 284.863 980.664 285.022V285.022ZM981.627 173.535C973.582 173.435 965.689 175.708 958.951 180.064C952.213 184.419 946.935 190.661 943.786 197.996C940.638 205.331 939.762 213.428 941.269 221.257C942.777 229.087 946.6 236.296 952.253 241.967C957.906 247.639 965.134 251.517 973.017 253.109C980.9 254.701 989.083 253.935 996.526 250.908C1003.97 247.881 1010.33 242.731 1014.82 236.11C1019.3 229.49 1021.69 221.699 1021.69 213.728C1021.69 203.155 1017.49 193.007 1009.99 185.484C1002.49 177.96 992.299 173.667 981.627 173.535Z"/>
<path fill="#96154A" d="M1297 491.566V353.753H1265.97V366.816C1255.36 358.69 1242.67 353.672 1229.33 352.332C1215.99 350.992 1202.54 353.384 1190.51 359.236C1178.47 365.088 1168.33 374.165 1161.24 385.438C1154.15 396.711 1150.39 409.728 1150.39 423.011C1150.39 436.294 1154.15 449.311 1161.24 460.584C1168.33 471.857 1178.47 480.935 1190.51 486.787C1202.54 492.639 1215.99 495.031 1229.33 493.691C1242.67 492.351 1255.36 487.333 1265.97 479.207V491.566H1297ZM1222.2 465.34C1213.75 465.34 1205.48 462.856 1198.45 458.202C1191.42 453.548 1185.94 446.934 1182.71 439.195C1179.47 431.455 1178.63 422.94 1180.28 414.724C1181.92 406.508 1186 398.961 1191.97 393.037C1197.95 387.114 1205.57 383.081 1213.86 381.446C1222.16 379.812 1230.75 380.65 1238.56 383.856C1246.37 387.062 1253.05 392.49 1257.75 399.455C1262.45 406.421 1264.95 414.609 1264.95 422.986C1264.94 434.215 1260.43 444.98 1252.42 452.92C1244.4 460.86 1233.54 465.327 1222.2 465.34"/>
<path fill="#96154A" d="M1560.25 144.043V157.86C1549.64 149.733 1536.95 144.716 1523.61 143.376C1510.27 142.036 1496.82 144.428 1484.79 150.28C1472.75 156.132 1462.61 165.21 1455.52 176.483C1448.43 187.756 1444.67 200.773 1444.67 214.055C1444.67 227.338 1448.43 240.355 1455.52 251.628C1462.61 262.901 1472.75 271.979 1484.79 277.831C1496.82 283.683 1510.27 286.075 1523.61 284.735C1536.95 283.395 1549.64 278.377 1560.25 270.251V281.907H1591.28V144.043H1560.25ZM1516.48 256.384C1508.03 256.394 1499.76 253.919 1492.72 249.271C1485.68 244.623 1480.2 238.011 1476.95 230.273C1473.71 222.535 1472.85 214.018 1474.5 205.799C1476.14 197.579 1480.21 190.028 1486.19 184.099C1492.16 178.171 1499.78 174.132 1508.07 172.494C1516.37 170.855 1524.97 171.691 1532.78 174.895C1540.6 178.1 1547.28 183.529 1551.97 190.495C1556.67 197.461 1559.18 205.651 1559.18 214.03C1559.17 225.25 1554.67 236.008 1546.67 243.947C1538.66 251.885 1527.81 256.357 1516.48 256.384Z"/>
<path fill="#96154A" d="M991.922 464.938C983.556 466.716 974.852 466.102 966.825 463.166C958.798 460.23 951.779 455.095 946.585 448.358L948.208 447.856L1054.35 412.687C1051.78 398.749 1045.69 385.682 1036.65 374.704C1029 365.386 1018.83 358.415 1007.34 354.607C995.073 350.769 982.071 349.828 969.372 351.861C956.674 353.894 944.633 358.843 934.212 366.313C924.33 373.676 916.724 383.631 912.254 395.052C907.619 406.911 906.288 419.787 908.399 432.331C909.386 439.061 911.314 445.622 914.13 451.825C927.011 481.367 960.024 498.349 994.204 493.174L997.551 492.621C1009.72 490.435 1021.12 485.17 1030.64 477.335C1040.15 469.501 1047.47 459.364 1051.86 447.906L1025.7 437.858C1022.78 444.773 1018.16 450.853 1012.26 455.54C1006.36 460.228 999.368 463.373 991.922 464.687V464.938ZM939.993 426.252C938.839 420.665 938.814 414.907 939.919 409.31C941.024 403.713 943.239 398.389 946.433 393.645C949.66 389.239 953.782 385.551 958.532 382.816C963.283 380.082 968.559 378.363 974.02 377.768C982.996 376.152 992.258 377.493 1000.39 381.587C1007.96 385.506 1013.92 391.896 1017.28 399.674L940.044 426.252H939.993Z"/>
<path fill="#96154A" d="M1068.45 439.214C1068.57 449.698 1071.68 459.933 1077.42 468.742C1083.16 477.55 1091.29 484.574 1100.88 489.005C1110.48 493.435 1121.13 495.093 1131.63 493.787C1142.13 492.48 1152.05 488.262 1160.23 481.619L1139.95 456.799C1135.65 460.265 1130.28 462.148 1124.74 462.125C1118.53 462.192 1112.55 459.817 1108.11 455.522C1103.67 451.227 1101.13 445.362 1101.05 439.214V302.607H1068.65L1068.45 439.214Z"/>
<path fill="#96154A" d="M1689.46 246.286C1685.18 249.771 1679.79 251.655 1674.25 251.611C1671.17 251.651 1668.12 251.089 1665.27 249.959C1662.41 248.828 1659.81 247.151 1657.61 245.023C1655.41 242.895 1653.66 240.358 1652.45 237.557C1651.24 234.756 1650.6 231.747 1650.57 228.701V96.1631L1618.16 116.762V228.701C1618.29 239.185 1621.4 249.419 1627.14 258.228C1632.88 267.037 1641.01 274.061 1650.6 278.492C1660.19 282.922 1670.85 284.58 1681.35 283.273C1691.85 281.966 1701.76 277.748 1709.95 271.105L1689.46 246.286Z"/>
<path fill="#96154A" d="M858.854 281.706H892.881V108.924C892.861 105.5 891.748 102.171 889.702 99.4114C887.656 96.6521 884.781 94.6049 881.489 93.5623C878.197 92.5198 874.657 92.5353 871.375 93.6071C868.092 94.6789 865.236 96.7518 863.215 99.5292L812.503 169.868L761.791 99.5292C759.778 96.7375 756.922 94.6522 753.634 93.5746C750.346 92.497 746.798 92.4828 743.501 93.5341C740.205 94.5854 737.331 96.6482 735.295 99.4237C733.26 102.199 732.167 105.544 732.176 108.975V281.756H766.203V167.507L768.333 170.069C781.417 186.297 801.347 210.764 802.462 211.82C805.2 214.401 808.826 215.856 812.605 215.889C816.378 215.826 819.993 214.375 822.747 211.82C823.812 210.764 843.742 186.297 856.876 170.069L858.955 167.507L858.854 281.706Z"/>
<path fill="#96154A" d="M1428.6 153.137H1396.2V281.907H1428.6V153.137Z"/>
<path fill="#96154A" d="M1432.81 113.345C1432.81 109.37 1431.62 105.485 1429.39 102.18C1427.16 98.8749 1423.99 96.2995 1420.29 94.7785C1416.58 93.2574 1412.5 92.8592 1408.57 93.6346C1404.63 94.4101 1401.02 96.3242 1398.18 99.1348C1395.34 101.945 1393.41 105.526 1392.63 109.425C1391.85 113.323 1392.25 117.364 1393.78 121.036C1395.32 124.708 1397.92 127.847 1401.26 130.055C1404.59 132.263 1408.51 133.442 1412.52 133.442C1417.9 133.442 1423.06 131.325 1426.87 127.556C1430.67 123.787 1432.81 118.675 1432.81 113.345Z"/>
<path fill="#96154A" d="M1432.86 353.954V421.228C1432.86 443.987 1416.48 461.421 1394.72 461.421C1372.97 461.421 1356.59 444.239 1356.59 421.228V354.105H1324.13V421.228C1323.9 430.574 1325.56 439.871 1329 448.577C1332.44 457.282 1337.59 465.222 1344.17 471.93C1350.74 478.638 1358.6 483.98 1367.28 487.645C1375.96 491.31 1385.29 493.224 1394.72 493.274C1408.41 493.314 1421.75 489.078 1432.86 481.167V498.651C1432.86 533.82 1404.41 560.951 1366.93 560.951C1322 560.951 1300.55 535.829 1297.21 512.617H1265.97C1269.97 559.091 1311.3 592.1 1366.73 592.1C1392.33 592.389 1417.1 583.074 1436.05 566.025C1445.39 557.425 1452.81 546.992 1457.85 535.392C1462.89 523.792 1465.43 511.279 1465.32 498.651V354.105L1432.86 353.954Z"/>
<path fill="#96154A" d="M1336.96 95.2085V157.86C1326.36 149.734 1313.67 144.716 1300.33 143.376C1286.99 142.036 1273.54 144.428 1261.5 150.28C1249.47 156.132 1239.33 165.21 1232.24 176.483C1225.15 187.756 1221.39 200.773 1221.39 214.056C1221.39 227.339 1225.15 240.356 1232.24 251.629C1239.33 262.902 1249.47 271.979 1261.5 277.831C1273.54 283.683 1286.99 286.075 1300.33 284.735C1313.67 283.396 1326.36 278.377 1336.96 270.251V281.907H1369.22V95.2085H1336.96ZM1293.2 256.384C1284.75 256.384 1276.48 253.9 1269.45 249.247C1262.42 244.593 1256.94 237.978 1253.7 230.238C1250.47 222.499 1249.62 213.983 1251.27 205.768C1252.92 197.552 1256.99 190.005 1262.97 184.082C1268.95 178.158 1276.57 174.125 1284.86 172.49C1293.15 170.856 1301.75 171.695 1309.56 174.901C1317.37 178.106 1324.05 183.535 1328.75 190.5C1333.44 197.465 1335.95 205.654 1335.95 214.031C1335.94 225.26 1331.43 236.025 1323.41 243.965C1315.4 251.905 1304.53 256.371 1293.2 256.384"/>
<path fill="#96154A" d="M867.678 491.567H909.971L862.302 424.694L863.367 424.042C872.22 419.072 879.727 412.052 885.246 403.583C890.766 395.113 894.134 385.446 895.062 375.407C895.88 366.194 894.795 356.912 891.874 348.128C888.953 339.343 884.258 331.24 878.074 324.311C871.971 317.513 864.49 312.067 856.119 308.327C847.748 304.587 838.675 302.638 829.492 302.607H770.058C759.8 302.739 750.013 306.897 742.845 314.168C735.677 321.44 731.713 331.23 731.821 341.394V491.567H765.899V433.99H826.753L867.678 491.567ZM767.066 400.076H765.899V347.423C765.872 344.527 767.004 341.737 769.048 339.666C771.091 337.594 773.879 336.409 776.802 336.369H828.325C836.755 336.088 844.959 339.094 851.175 344.742C857.391 350.389 861.123 358.227 861.568 366.572C862.013 374.916 859.136 383.1 853.555 389.365C847.974 395.63 840.136 399.476 831.723 400.076H767.066Z"/>
</g>
<defs>
<clipPath id="clip0_1674_25363">
<rect fill="white" height="592" width="1710"/>
</clipPath>
</defs>
</svg>